<svg width="16" height="16" viewBox="0 0 16 16" fill="none" xmlns="http://www.w3.org/2000/svg">
<path d="M13.7654 2.06396L8.76855 5.7752L9.6926 3.58562L13.7654 2.06396Z" fill="#E2761B" stroke="#E2761B" stroke-linecap="round" stroke-linejoin="round"/>
<path d="M2.22994 2.06396L7.18663 5.81036L6.30778 3.58562L2.22994 2.06396ZM11.9675 10.6666L10.6367 12.7055L13.4842 13.4889L14.3028 10.7118L11.9675 10.6666ZM1.70264 10.7118L2.5162 13.4889L5.36365 12.7055L4.03283 10.6666L1.70264 10.7118Z" fill="#E4761B" stroke="#E4761B" stroke-linecap="round" stroke-linejoin="round"/>
<path d="M5.20265 7.22152L4.40918 8.42177L7.23655 8.54732L7.13611 5.50903L5.20265 7.22152ZM10.7921 7.22152L8.83354 5.47388L8.76825 8.54732L11.5906 8.42177L10.7921 7.22152ZM5.36335 12.7055L7.06078 11.8769L5.59436 10.7319L5.36335 12.7055ZM8.93398 11.8769L10.6364 12.7055L10.4004 10.7319L8.93398 11.8769Z" fill="#E4761B" stroke="#E4761B" stroke-linecap="round" stroke-linejoin="round"/>
<path d="M10.6364 12.7056L8.9339 11.877L9.0695 12.9868L9.05443 13.4539L10.6364 12.7056ZM5.36328 12.7056L6.9452 13.4539L6.93516 12.9868L7.06071 11.877L5.36328 12.7056Z" fill="#D7C1B3" stroke="#D7C1B3" stroke-linecap="round" stroke-linejoin="round"/>
<path d="M6.9704 9.99882L5.5542 9.582L6.55357 9.125L6.9704 9.99882ZM9.02438 9.99882L9.4412 9.125L10.4456 9.582L9.02438 9.99882Z" fill="#233447" stroke="#233447" stroke-linecap="round" stroke-linejoin="round"/>
<path d="M5.36354 12.7056L5.60459 10.6667L4.03271 10.7119L5.36354 12.7056ZM10.3956 10.6667L10.6366 12.7056L11.9674 10.7119L10.3956 10.6667ZM11.5908 8.42188L8.76843 8.54742L9.02958 9.99877L9.4464 9.12495L10.4508 9.58195L11.5908 8.42188ZM5.55437 9.58195L6.55877 9.12495L6.97057 9.99877L7.23673 8.54742L4.40936 8.42188L5.55437 9.58195Z" fill="#CD6116" stroke="#CD6116" stroke-linecap="round" stroke-linejoin="round"/>
<path d="M4.40918 8.42188L5.59436 10.732L5.55419 9.58195L4.40918 8.42188ZM10.4506 9.58195L10.4004 10.732L11.5906 8.42188L10.4506 9.58195ZM7.23655 8.54742L6.97038 9.99877L7.30183 11.7113L7.37716 9.4564L7.23655 8.54742ZM8.76825 8.54742L8.63266 9.45138L8.69292 11.7113L9.02939 9.99877L8.76825 8.54742Z" fill="#E4751F" stroke="#E4751F" stroke-linecap="round" stroke-linejoin="round"/>
<path d="M9.0294 9.99886L8.69293 11.7113L8.93399 11.8771L10.4004 10.7321L10.4506 9.58203L9.0294 9.99886ZM5.5542 9.58203L5.59438 10.7321L7.06079 11.8771L7.30184 11.7113L6.9704 9.99886L5.5542 9.58203Z" fill="#F6851B" stroke="#F6851B" stroke-linecap="round" stroke-linejoin="round"/>
<path d="M9.05443 13.4538L9.0695 12.9868L8.94395 12.8763H7.05066L6.93516 12.9868L6.9452 13.4538L5.36328 12.7056L5.9157 13.1575L7.0356 13.9359H8.95901L10.0839 13.1575L10.6364 12.7056L9.05443 13.4538Z" fill="#C0AD9E" stroke="#C0AD9E" stroke-linecap="round" stroke-linejoin="round"/>
<path d="M8.93429 11.8769L8.69324 11.7112H7.30215L7.0611 11.8769L6.93555 12.9868L7.05105 12.8763H8.94434L9.06988 12.9868L8.93429 11.8769Z" fill="#161616" stroke="#161616" stroke-linecap="round" stroke-linejoin="round"/>
<path d="M13.9763 6.01626L14.4032 3.96729L13.7654 2.06396L8.93427 5.64965L10.7924 7.22153L13.4189 7.98989L14.0014 7.31192L13.7503 7.13113L14.1521 6.76453L13.8407 6.52348L14.2425 6.21713L13.9763 6.01626ZM1.59717 3.96729L2.02404 6.01626L1.75285 6.21713L2.15461 6.52348L1.84827 6.76453L2.25002 7.13113L1.99893 7.31192L2.57645 7.98989L5.20294 7.22153L7.06107 5.64965L2.22994 2.06396L1.59717 3.96729Z" fill="#763D16" stroke="#763D16" stroke-linecap="round" stroke-linejoin="round"/>
<path d="M13.4189 7.98996L10.7924 7.2216L11.5909 8.42185L10.4007 10.732L11.9675 10.7119H14.3028L13.4189 7.98996ZM5.20295 7.2216L2.57646 7.98996L1.70264 10.7119H4.03283L5.59466 10.732L4.40948 8.42185L5.20295 7.2216ZM8.76855 8.5474L8.93428 5.64972L9.69762 3.58569H6.30778L7.06108 5.64972L7.23685 8.5474L7.29711 9.4614L7.30213 11.7112H8.69322L8.70326 9.4614L8.76855 8.5474Z" fill="#F6851B" stroke="#F6851B" stroke-linecap="round" stroke-linejoin="round"/>
</svg>
