<svg width="100%" height="100%" viewBox="0 0 16 16" fill="none" xmlns="http://www.w3.org/2000/svg">
<path d="M9.73101 5.99878H6.26816C6.12244 5.99878 6.00244 6.11878 6.00244 6.26449V9.72735C6.00244 9.87306 6.12244 9.99306 6.26816 9.99306H9.73101C9.87673 9.99306 9.99673 9.87306 9.99673 9.72735V6.26449C9.99673 6.11878 9.87673 5.99878 9.73101 5.99878Z" fill="white"/>
<path d="M5.72857 2.00439H2.26571C2.12 2.00439 2 2.12439 2 2.27011V5.73297C2 5.87868 2.12 5.99868 2.26571 5.99868H5.72857C5.87429 5.99868 5.99429 5.87868 5.99429 5.73297V2.27011C5.99429 2.12439 5.87429 2.00439 5.72857 2.00439Z" fill="white"/>
<path d="M13.7344 2.00439H10.2716C10.1259 2.00439 10.0059 2.12439 10.0059 2.27011V5.73297C10.0059 5.87868 10.1259 5.99868 10.2716 5.99868H13.7344C13.8801 5.99868 14.0001 5.87868 14.0001 5.73297V2.27011C14.0001 2.12439 13.8801 2.00439 13.7344 2.00439Z" fill="white"/>
<path d="M5.72857 10.0015H2.26571C2.12 10.0015 2 10.1215 2 10.2672V13.73C2 13.8758 2.12 13.9958 2.26571 13.9958H5.72857C5.87429 13.9958 5.99429 13.8758 5.99429 13.73V10.2672C5.99429 10.1215 5.87429 10.0015 5.72857 10.0015Z" fill="white"/>
<path d="M13.7344 10.0015H10.2716C10.1259 10.0015 10.0059 10.1215 10.0059 10.2672V13.73C10.0059 13.8758 10.1259 13.9958 10.2716 13.9958H13.7344C13.8801 13.9958 14.0001 13.8758 14.0001 13.73V10.2672C14.0001 10.1215 13.8801 10.0015 13.7344 10.0015Z" fill="white"/>
</svg>
