<svg width="189" height="147" viewBox="0 0 189 147" fill="none" xmlns="http://www.w3.org/2000/svg">
<g opacity="0.8">
<path d="M79.7685 124.62C51.5445 136.132 28.1491 138.166 22.3426 128.108C14.7109 114.886 40.3936 85.7528 79.7685 62.9195V59.7545C79.4605 59.9316 79.1447 60.1087 78.8367 60.2858C27.5715 89.8806 -7.15978 125.698 1.25736 140.283C8.02649 152.004 40.6169 146.436 79.7685 128.432V124.62Z" fill="url(#paint0_linear_137_1578)"/>
<path d="M186.904 33.1014C180.135 21.3806 147.545 26.9484 108.393 44.9532V48.7651C136.617 37.2522 160.013 35.2192 165.819 45.2766C173.451 58.4992 147.768 87.6318 108.393 110.465V113.63C108.701 113.453 109.017 113.276 109.325 113.099C160.59 83.5041 195.321 47.687 186.904 33.1014Z" fill="url(#paint1_linear_137_1578)"/>
</g>
<path d="M79.7685 97.6816C51.5445 109.195 28.1491 111.228 22.3426 101.17C14.7109 87.9476 40.3936 58.8149 79.7685 35.9816V32.8165C79.4605 32.9937 79.1447 33.1708 78.8367 33.3479C27.5715 62.9426 -7.15978 98.7598 1.25736 113.345C8.02649 125.066 40.6169 119.498 79.7685 101.494V97.6816Z" fill="#C2FB20"/>
<path d="M186.904 6.16351C180.135 -5.55733 147.545 0.010464 108.393 18.0153V21.8273C136.617 10.3143 160.013 8.28127 165.819 18.3387C173.451 31.5612 147.768 60.6939 108.393 83.5272V86.6923C108.701 86.5152 109.017 86.3381 109.325 86.161C160.59 56.5662 195.321 20.7491 186.904 6.16351Z" fill="#C2FB20"/>
<defs>
<linearGradient id="paint0_linear_137_1578" x1="0.00210168" y1="103.103" x2="79.7685" y2="103.103" gradientUnits="userSpaceOnUse">
<stop stop-color="#C2FB20"/>
<stop offset="0.23" stop-color="#C2FB20" stop-opacity="0.99"/>
<stop offset="0.36" stop-color="#C2FB20" stop-opacity="0.96"/>
<stop offset="0.47" stop-color="#C2FB20" stop-opacity="0.9"/>
<stop offset="0.57" stop-color="#C2FB20" stop-opacity="0.82"/>
<stop offset="0.67" stop-color="#C2FB20" stop-opacity="0.72"/>
<stop offset="0.75" stop-color="#C2FB20" stop-opacity="0.59"/>
<stop offset="0.83" stop-color="#C2FB20" stop-opacity="0.44"/>
<stop offset="0.91" stop-color="#C2FB20" stop-opacity="0.26"/>
<stop offset="0.98" stop-color="#C2FB20" stop-opacity="0.07"/>
<stop offset="1" stop-color="#C2FB20" stop-opacity="0"/>
</linearGradient>
<linearGradient id="paint1_linear_137_1578" x1="108.393" y1="70.2893" x2="188.167" y2="70.2893" gradientUnits="userSpaceOnUse">
<stop stop-color="#C2FB20" stop-opacity="0"/>
<stop offset="0.02" stop-color="#C2FB20" stop-opacity="0.07"/>
<stop offset="0.09" stop-color="#C2FB20" stop-opacity="0.26"/>
<stop offset="0.17" stop-color="#C2FB20" stop-opacity="0.44"/>
<stop offset="0.25" stop-color="#C2FB20" stop-opacity="0.59"/>
<stop offset="0.33" stop-color="#C2FB20" stop-opacity="0.72"/>
<stop offset="0.43" stop-color="#C2FB20" stop-opacity="0.82"/>
<stop offset="0.53" stop-color="#C2FB20" stop-opacity="0.9"/>
<stop offset="0.64" stop-color="#C2FB20" stop-opacity="0.96"/>
<stop offset="0.77" stop-color="#C2FB20" stop-opacity="0.99"/>
<stop offset="1" stop-color="#C2FB20"/>
</linearGradient>
</defs>
</svg>
