<svg width="473" height="191" viewBox="0 0 473 191" fill="none" xmlns="http://www.w3.org/2000/svg">
<g opacity="0.8">
<path d="M103.583 161.824C66.9327 176.774 36.5527 179.414 29.0127 166.354C19.1027 149.184 52.4527 111.354 103.583 81.7036V77.5936C103.183 77.8236 102.773 78.0536 102.373 78.2836C35.8027 116.714 -9.29727 163.224 1.63273 182.164C10.4227 197.384 52.7427 190.154 103.583 166.774V161.824Z" fill="url(#paint0_linear_6_20)"/>
<path d="M215.313 58.7936C220.493 67.7736 213.843 82.4036 199.013 98.5536H209.993C235.873 75.2736 249.203 54.2536 242.703 42.9836C233.913 27.7636 191.593 34.9936 140.753 58.3736V63.3236C177.403 48.3736 207.783 45.7336 215.323 58.7936H215.313Z" fill="url(#paint1_linear_6_20)"/>
</g>
<path d="M103.583 126.844C66.9327 141.794 36.5527 144.434 29.0127 131.374C19.1027 114.204 52.4527 76.3736 103.583 46.7236V42.6136C103.183 42.8436 102.773 43.0736 102.373 43.3036C35.8027 81.7337 -9.29727 128.244 1.63273 147.184C10.4227 162.404 52.7427 155.174 103.583 131.794V126.844Z" fill="#C2FB20"/>
<path d="M215.313 23.8136C224.153 39.1236 198.603 70.8436 156.733 98.5536H163.703C218.023 63.2636 252.383 24.7936 242.693 8.00357C233.903 -7.21643 191.583 0.013588 140.743 23.3936V28.3436C177.393 13.3936 207.773 10.7536 215.313 23.8136Z" fill="#C2FB20"/>
<path d="M114.983 108.554H158.163V121.334H130.363V130.254H157.483V142.954H130.363V152.304H158.163V165.084H114.983V108.554Z" fill="white"/>
<path d="M173.983 150.914V152.024H201.353V165.084H162.813V108.554H178.193V147.414C178.193 148.484 177.873 149.334 177.243 149.964C176.613 150.594 175.763 150.914 174.693 150.914H173.983Z" fill="white"/>
<path d="M206.313 108.554H221.583V165.084H206.313V108.554Z" fill="white"/>
<path d="M226.763 108.554H257.883C264.333 108.554 269.003 110.274 271.893 113.714C274.783 117.154 276.233 122.574 276.233 129.974C276.233 137.374 274.783 142.924 271.893 146.334C269.003 149.744 264.333 151.454 257.883 151.454H242.143V165.084H226.763V108.554ZM254.273 139.314C256.633 139.314 258.343 138.894 259.413 138.044C260.483 137.204 261.023 134.504 261.023 129.964C261.023 125.424 260.483 122.854 259.413 121.984C258.343 121.114 256.633 120.684 254.273 120.684H242.103V139.314H254.273Z" fill="white"/>
<path d="M307.273 165.374C297.873 165.374 291.093 164.114 286.933 161.594C282.773 159.074 280.683 153.684 280.683 145.424H296.063C296.063 149.494 297.123 151.864 299.243 152.544C301.363 153.224 303.993 153.564 307.133 153.564C310.273 153.564 312.883 153.354 315.023 152.944C317.163 152.524 318.233 151.154 318.233 148.824C318.233 146.494 316.723 145.004 313.703 144.484C310.683 143.974 306.743 143.404 301.893 142.784C294.063 141.544 288.583 139.884 285.443 137.784C282.303 135.694 280.733 132.084 280.733 126.974C280.733 119.404 282.873 114.444 287.143 112.094C291.413 109.734 297.993 108.564 306.893 108.564C315.793 108.564 322.433 109.894 326.733 112.544C331.043 115.194 333.193 120.444 333.193 128.304H317.813C317.813 124.374 316.703 122.074 314.473 121.394C312.253 120.714 309.663 120.374 306.713 120.374C303.473 120.374 300.793 120.584 298.663 120.994C296.533 121.414 295.473 122.864 295.473 125.364C295.473 127.864 297.033 129.294 300.153 129.714C303.273 130.134 307.133 130.674 311.753 131.324C320.013 132.584 325.653 134.204 328.683 136.174C331.713 138.154 333.233 141.644 333.233 146.664C333.233 154.374 331.173 159.414 327.063 161.794C322.943 164.174 316.353 165.364 307.293 165.364L307.273 165.374Z" fill="white"/>
<path d="M375.753 108.554H392.633L370.293 143.884V165.084H354.943V143.884L332.533 108.554H349.413L360.653 127.864C361.053 128.364 361.393 128.964 361.653 129.664C361.913 130.364 362.043 131.034 362.043 131.684L362.153 134.544H363.083L363.193 131.684C363.213 131.044 363.353 130.374 363.603 129.664C363.853 128.964 364.183 128.364 364.583 127.864L375.753 108.554Z" fill="white"/>
<path d="M418.793 165.374C409.393 165.374 402.613 164.114 398.453 161.594C394.293 159.074 392.203 153.684 392.203 145.424H407.583C407.583 149.494 408.643 151.864 410.763 152.544C412.883 153.224 415.513 153.564 418.653 153.564C421.793 153.564 424.403 153.354 426.543 152.944C428.683 152.524 429.753 151.154 429.753 148.824C429.753 146.494 428.243 145.004 425.223 144.484C422.203 143.974 418.263 143.404 413.413 142.784C405.583 141.544 400.103 139.884 396.963 137.784C393.823 135.694 392.253 132.084 392.253 126.974C392.253 119.404 394.393 114.444 398.663 112.094C402.933 109.734 409.513 108.564 418.413 108.564C427.313 108.564 433.953 109.894 438.253 112.544C442.563 115.194 444.713 120.444 444.713 128.304H429.333C429.333 124.374 428.223 122.074 425.993 121.394C423.773 120.714 421.183 120.374 418.233 120.374C414.993 120.374 412.313 120.584 410.183 120.994C408.053 121.414 406.993 122.864 406.993 125.364C406.993 127.864 408.553 129.294 411.673 129.714C414.793 130.134 418.653 130.674 423.273 131.324C431.533 132.584 437.173 134.204 440.203 136.174C443.233 138.154 444.753 141.644 444.753 146.664C444.753 154.374 442.693 159.414 438.583 161.794C434.463 164.174 427.873 165.364 418.813 165.364L418.793 165.374Z" fill="white"/>
<path d="M460.813 145.134C458.553 152.524 454.633 159.304 449.353 164.964C456.893 163.234 464.733 163.264 472.263 165.074H472.293C467.013 159.414 463.103 152.624 460.853 145.214L460.823 145.124L460.813 145.134Z" fill="white"/>
<defs>
<linearGradient id="paint0_linear_6_20" x1="0.00272912" y1="133.884" x2="103.583" y2="133.884" gradientUnits="userSpaceOnUse">
<stop stop-color="#C2FB20"/>
<stop offset="1" stop-color="#C2FB20" stop-opacity="0"/>
</linearGradient>
<linearGradient id="paint1_linear_6_20" x1="140.753" y1="66.7636" x2="244.333" y2="66.7636" gradientUnits="userSpaceOnUse">
<stop stop-color="#C2FB20" stop-opacity="0"/>
<stop offset="1" stop-color="#C2FB20"/>
</linearGradient>
</defs>
</svg>
