<svg width="16" height="16" viewBox="0 0 16 16" fill="inherit" xmlns="http://www.w3.org/2000/svg">
<path d="M6.63636 13.4765L6.63636 2.13061C6.63636 2.05887 6.575 2.00018 6.5 2.00018L5.47727 2.00018C5.40227 2.00018 5.34091 2.05887 5.34091 2.13061L5.34091 11.9977L2.22159 9.64508C2.13295 9.57824 2 9.63856 2 9.7478L2 10.9298C2 11.0097 2.0375 11.0847 2.10398 11.1353L5.75341 13.8874C6.11136 14.1564 6.63636 13.9135 6.63636 13.4765ZM10.6591 13.8694L10.6591 4.0023L13.7784 6.35495C13.867 6.4218 14 6.36148 14 6.25224L14 5.07021C14 4.99032 13.9625 4.91532 13.896 4.86478L10.2466 2.11267C9.88864 1.84366 9.36364 2.08659 9.36364 2.5219L9.36364 13.8694C9.36364 13.9412 9.425 13.9999 9.5 13.9999L10.5227 13.9999C10.5977 13.9999 10.6591 13.9412 10.6591 13.8694Z" fill="inherit"/>
</svg>
