<svg width="100%" height="100%" viewBox="0 0 135 20" fill="none" xmlns="http://www.w3.org/2000/svg">
<path d="M64.7931 6H60.7919C59.2544 6 58.0091 7.24696 58.0091 8.78648V11.2135C58.0091 12.753 59.2544 14 60.7919 14H64.8879V13.9958C66.3807 13.9457 67.5764 12.721 67.5764 11.2135V8.78649C67.5764 7.24696 66.331 6 64.7931 6ZM64.3617 12.6709H61.2233V7.32916H64.3617V12.6709ZM20.3485 6H16.3475C14.8097 6 13.5643 7.24696 13.5643 8.78648V11.2135C13.5643 12.753 14.8097 14 16.3475 14H20.4431V13.9958C21.9363 13.9457 23.1317 12.721 23.1317 11.2135V8.78649C23.1317 7.24696 21.8862 6 20.3485 6ZM19.9171 12.6709H16.7789V7.32916H19.9171V12.6709ZM42.7412 7.39324H42.7426L40.4186 11.4225V6H38.8085C37.8134 6 36.895 6.53083 36.3981 7.39324L33.0304 13.2323L31.5483 10.6632C32.6129 10.6506 33.473 9.78265 33.473 8.71403V7.95054C33.473 6.87356 32.6004 6 31.5247 6H23.9055V14H27.1202V10.6646H27.8382L29.7615 14H34.0728L37.2039 8.56914V14H40.4186V13.9972L43.5359 8.59143V14H46.7505V6H45.1516C44.1565 6 43.2381 6.53083 42.7412 7.39324ZM30.2583 9.33542H27.1202V7.32916H30.2583V9.33542ZM54.0007 6H57.2154V14H54.0007V10.6646H50.8628V14H47.6481V6H50.8628V9.33543H54.0007V6ZM71.5842 12.6709H75.7343V14H71.1528C69.6149 14 68.3695 12.753 68.3695 11.2135V6H71.5842V12.6709ZM79.7753 7.32915V9.33542H84.1742V10.6646H79.7753V12.6709H85.3333V14H76.5606V6H85.3333V7.32916L79.7753 7.32915ZM14.1641 6L10.3537 12.6068C9.85695 13.4692 8.93847 14 7.94344 14H6.33333V8.5775L4.00929 12.6068C3.51248 13.4692 2.594 14 1.59898 14H0V6H3.21607V11.4086L6.33333 6.00278V6H9.54799V11.4309L12.6792 6H14.1641Z" fill="#FAFAFA"/>
<rect x="93.3335" width="41" height="20" rx="4" fill="#C2FB20"/>
<path d="M102.203 7H103.043V13.22H106.703V14H102.203V7ZM108.297 7H112.737V7.78H110.937V13.22H112.737V14H108.297V13.22H110.097V7.78H108.297V7ZM114.18 7H119.1V7.78H117.06V14H116.22V7.78H114.18V7ZM120.643 7H124.883V7.78H121.483V10.1H124.823V10.88H121.483V13.22H124.943V14H120.643V7Z" fill="#0A0A0A"/>
</svg>
