<svg width="100%" height="100%" viewBox="0 0 16 16" fill="none" xmlns="http://www.w3.org/2000/svg">
<path d="M14.9284 8.87711C15.4783 7.64459 12.7599 4.2011 10.1629 2.76647C8.526 1.65508 6.82026 1.80776 6.47481 2.29575C5.71665 3.36666 8.98526 4.27412 11.1712 5.33303C10.7013 5.53781 10.2585 5.90529 9.99811 6.37525C9.18316 5.48256 7.39445 4.71381 5.29564 5.33303C3.88128 5.75033 2.70583 6.7341 2.25152 8.22C2.14114 8.17079 2.01891 8.14341 1.89032 8.14341C1.39861 8.14341 1 8.54339 1 9.03674C1 9.53013 1.39861 9.93007 1.89032 9.93007C1.98146 9.93007 2.26644 9.86875 2.26644 9.86875L6.82026 9.90185C4.99909 12.8007 3.55986 13.2244 3.55986 13.7267C3.55986 14.2289 4.93697 14.0928 5.45401 13.9056C7.9293 13.0095 10.5879 10.2166 11.0441 9.41257C12.9599 9.65239 14.5699 9.68075 14.9284 8.87711Z" fill="url(#paint0_linear_236_2203)"/>
<path fill-rule="evenodd" clip-rule="evenodd" d="M11.1714 5.33331C11.1715 5.33335 11.1716 5.33343 11.1717 5.33346C11.2731 5.2934 11.2567 5.14327 11.2288 5.02533C11.1649 4.75434 10.0615 3.66114 9.02544 3.17151C7.61363 2.50429 6.574 2.53869 6.42041 2.84622C6.708 3.4376 8.04125 3.99288 9.43366 4.57277C10.0277 4.82018 10.6326 5.07208 11.1716 5.3332C11.1715 5.33324 11.1714 5.33327 11.1714 5.33331Z" fill="url(#paint1_linear_236_2203)"/>
<path fill-rule="evenodd" clip-rule="evenodd" d="M9.38009 11.2856C9.09455 11.1761 8.77203 11.0756 8.40535 10.9845C8.79633 10.2826 8.87835 9.24342 8.50913 8.58642C7.99091 7.66435 7.34044 7.17358 5.82884 7.17358C4.99748 7.17358 2.75905 7.45457 2.71933 9.32946C2.71515 9.52619 2.71922 9.70647 2.73342 9.87225L6.82093 9.90198C6.26986 10.7791 5.75377 11.4297 5.30196 11.9243C5.84444 12.0638 6.29211 12.1809 6.70314 12.2884C7.0931 12.3904 7.45006 12.4838 7.82369 12.5794C8.38728 12.1674 8.91708 11.7182 9.38009 11.2856Z" fill="url(#paint2_linear_236_2203)"/>
<path d="M2.19688 9.67964C2.36388 11.1039 3.17059 11.662 4.81904 11.8272C6.46748 11.9924 7.41306 11.8816 8.67193 11.9965C9.72336 12.0925 10.6621 12.6301 11.0104 12.4443C11.3238 12.2771 11.1485 11.6731 10.7291 11.2855C10.1854 10.7832 9.433 10.4339 8.10909 10.3099C8.37295 9.58513 8.29902 8.56882 7.88924 8.01589C7.29676 7.21639 6.20317 6.85495 4.81904 7.01287C3.37298 7.17785 1.98734 7.89218 2.19688 9.67964Z" fill="url(#paint3_linear_236_2203)"/>
<defs>
<linearGradient id="paint0_linear_236_2203" x1="5.13092" y1="7.78565" x2="14.8149" y2="10.5226" gradientUnits="userSpaceOnUse">
<stop stop-color="#8697FF"/>
<stop offset="1" stop-color="#ABB7FF"/>
</linearGradient>
<linearGradient id="paint1_linear_236_2203" x1="13.1806" y1="7.60113" x2="6.17307" y2="0.600107" gradientUnits="userSpaceOnUse">
<stop stop-color="#8697FF"/>
<stop offset="1" stop-color="#5156D8" stop-opacity="0"/>
</linearGradient>
<linearGradient id="paint2_linear_236_2203" x1="9.57439" y1="11.5303" x2="2.85436" y2="7.67973" gradientUnits="userSpaceOnUse">
<stop stop-color="#465EED"/>
<stop offset="1" stop-color="#8697FF" stop-opacity="0"/>
</linearGradient>
<linearGradient id="paint3_linear_236_2203" x1="5.70872" y1="7.71334" x2="10.2622" y2="13.4796" gradientUnits="userSpaceOnUse">
<stop stop-color="#8898FF"/>
<stop offset="0.983895" stop-color="#6277F1"/>
</linearGradient>
</defs>
</svg>
