<svg width="100%" height="100%" viewBox="0 0 16 16" fill="none" xmlns="http://www.w3.org/2000/svg">
<path d="M12.8 5.0001V3.8001C12.8 3.1383 12.2618 2.6001 11.6 2.6001H3.8C2.8076 2.6001 2 3.4077 2 4.4001V11.6001C2 12.9207 3.0764 13.4001 3.8 13.4001H12.8C13.4618 13.4001 14 12.8619 14 12.2001V6.2001C14 5.5383 13.4618 5.0001 12.8 5.0001ZM3.8 3.8001H11.6V5.0001H3.8C3.64551 4.99319 3.49964 4.92695 3.39277 4.81519C3.28589 4.70342 3.22624 4.55474 3.22624 4.4001C3.22624 4.24546 3.28589 4.09677 3.39277 3.98501C3.49964 3.87324 3.64551 3.80701 3.8 3.8001ZM12.8 12.2001H3.8072C3.53 12.1929 3.2 12.0831 3.2 11.6001V6.0891C3.3884 6.1569 3.5882 6.2001 3.8 6.2001H12.8V12.2001Z" fill="white"/>
</svg>
