<svg width="16" height="16" viewBox="0 0 16 16" fill="inherit" xmlns="http://www.w3.org/2000/svg">
<path d="M3.55264 2.24155C3.38267 2.08257 3.15785 1.99603 2.92556 2.00014C2.69327 2.00425 2.47163 2.09871 2.30735 2.2636C2.14307 2.4285 2.04897 2.65096 2.04487 2.88412C2.04077 3.11728 2.127 3.34294 2.28538 3.51355L6.73274 7.97755L2.28538 12.4416C2.19729 12.5239 2.12663 12.6233 2.07762 12.7337C2.02861 12.8441 2.00226 12.9633 2.00014 13.0841C1.99802 13.205 2.02016 13.325 2.06526 13.4371C2.11035 13.5491 2.17748 13.6509 2.26262 13.7364C2.34776 13.8219 2.44919 13.8892 2.56083 13.9345C2.67248 13.9798 2.79207 14.002 2.91246 13.9999C3.03286 13.9977 3.15159 13.9713 3.26158 13.9221C3.37156 13.8729 3.47055 13.802 3.55264 13.7136L8 9.24955L12.4474 13.7136C12.5294 13.802 12.6284 13.8729 12.7384 13.9221C12.8484 13.9713 12.9671 13.9977 13.0875 13.9999C13.2079 14.002 13.3275 13.9798 13.4392 13.9345C13.5508 13.8892 13.6522 13.8219 13.7374 13.7364C13.8225 13.6509 13.8896 13.5491 13.9347 13.4371C13.9798 13.325 14.002 13.205 13.9999 13.0841C13.9977 12.9633 13.9714 12.8441 13.9224 12.7337C13.8734 12.6233 13.8027 12.5239 13.7146 12.4416L9.26726 7.97755L13.7146 3.51355C13.873 3.34294 13.9592 3.11728 13.9551 2.88412C13.951 2.65096 13.8569 2.4285 13.6926 2.2636C13.5284 2.09871 13.3067 2.00425 13.0744 2.00014C12.8421 1.99603 12.6173 2.08257 12.4474 2.24155L8 6.70555L3.55264 2.24155Z" fill="inherit"/>
</svg>
