<svg width="16" height="16" viewBox="0 0 16 16" fill="inherit" xmlns="http://www.w3.org/2000/svg">
<path d="M12.0482 11.0737L15 14.0248L14.0248 15L11.0737 12.0482C9.9757 12.9285 8.60993 13.4072 7.20262 13.4052C3.77877 13.4052 1 10.6265 1 7.20262C1 3.77877 3.77877 1 7.20262 1C10.6265 1 13.4052 3.77877 13.4052 7.20262C13.4072 8.60993 12.9285 9.9757 12.0482 11.0737ZM10.6657 10.5624C11.5402 9.66279 12.0286 8.45718 12.0269 7.20262C12.0269 4.53756 9.86768 2.37836 7.20262 2.37836C4.53756 2.37836 2.37836 4.53756 2.37836 7.20262C2.37836 9.86768 4.53756 12.0269 7.20262 12.0269C8.45718 12.0286 9.66279 11.5402 10.5624 10.6657L10.6657 10.5624Z" fill="inherit"/>
</svg>
