<svg width="100%" height="100%" viewBox="0 0 16 16" fill="none" xmlns="http://www.w3.org/2000/svg">
<circle cx="8" cy="8" r="7.875" fill="black" stroke="#646464" stroke-width="0.25"/>
<g opacity="0.8">
<path d="M7.02757 10.2922C5.60252 10.8735 4.42127 10.9761 4.12809 10.4683C3.74277 9.8007 5.0395 8.32977 7.02757 7.1769V7.01709C7.01202 7.02603 6.99608 7.03498 6.98053 7.04392C4.39211 8.53818 2.6385 10.3466 3.06348 11.0831C3.40526 11.6748 5.05078 11.3937 7.02757 10.4846V10.2922Z" fill="#646464"/>
<path d="M12.4363 5.67131C12.0945 5.07951 10.449 5.36064 8.47217 6.26971V6.46218C9.89722 5.88088 11.0785 5.77824 11.3717 6.28604C11.757 6.95366 10.4602 8.42459 8.47217 9.57746V9.73727C8.48772 9.72833 8.50366 9.71938 8.51922 9.71044C11.1076 8.21618 12.8612 6.40775 12.4363 5.67131Z" fill="#646464"/>
</g>
<path d="M7.02757 8.93207C5.60252 9.51337 4.42127 9.61602 4.12809 9.10821C3.74277 8.44059 5.0395 6.96966 7.02757 5.81679V5.65698C7.01202 5.66593 6.99608 5.67487 6.98053 5.68381C4.39211 7.17807 2.6385 8.98651 3.06348 9.72295C3.40526 10.3147 5.05078 10.0336 7.02757 9.12454V8.93207Z" fill="#A0A0A2"/>
<path d="M12.4363 4.3112C12.0945 3.71941 10.449 4.00053 8.47217 4.90961V5.10208C9.89722 4.52078 11.0785 4.41813 11.3717 4.92594C11.757 5.59355 10.4602 7.06448 8.47217 8.21736V8.37716C8.48772 8.36822 8.50366 8.35928 8.51922 8.35033C11.1076 6.85607 12.8612 5.04764 12.4363 4.3112Z" fill="#A0A0A2"/>
</svg>
