<svg width="100%" height="100%" viewBox="0 0 16 16" fill="none" xmlns="http://www.w3.org/2000/svg">
<circle cx="8" cy="8" r="7.875" fill="black" stroke="#C2FB20" stroke-width="0.25"/>
<g opacity="0.8">
<path d="M7.02721 10.2914C5.60229 10.8726 4.42114 10.9753 4.12799 10.4675C3.7427 9.79996 5.03932 8.32916 7.02721 7.17639V7.0166C7.01166 7.02554 6.99572 7.03449 6.98017 7.04343C4.39198 8.53756 2.63853 10.3458 3.06348 11.0822C3.40523 11.6739 5.05059 11.3928 7.02721 10.4838V10.2914Z" fill="url(#paint0_linear_233_3320)"/>
<path d="M12.4364 5.67128C12.0946 5.07954 10.4493 5.36064 8.47266 6.26963V6.46208C9.89758 5.88084 11.0787 5.7782 11.3719 6.28596C11.7572 6.95352 10.4606 8.42432 8.47266 9.57708V9.73688C8.48821 9.72794 8.50415 9.71899 8.5197 9.71005C11.1079 8.21592 12.8613 6.40765 12.4364 5.67128Z" fill="url(#paint1_linear_233_3320)"/>
</g>
<path d="M7.02721 8.93178C5.60229 9.51302 4.42114 9.61566 4.12799 9.1079C3.7427 8.44035 5.03932 6.96954 7.02721 5.81678V5.65698C7.01166 5.66592 6.99572 5.67487 6.98017 5.68381C4.39198 7.17794 2.63853 8.98621 3.06348 9.72258C3.40523 10.3143 5.05059 10.0332 7.02721 9.12423V8.93178Z" fill="#C2FB20"/>
<path d="M12.4364 4.31117C12.0946 3.71943 10.4493 4.00053 8.47266 4.90952V5.10198C9.89758 4.52073 11.0787 4.41809 11.3719 4.92585C11.7572 5.59341 10.4606 7.06421 8.47266 8.21698V8.37677C8.48821 8.36783 8.50415 8.35889 8.5197 8.34994C11.1079 6.85582 12.8613 5.04754 12.4364 4.31117Z" fill="#C2FB20"/>
<defs>
<linearGradient id="paint0_linear_233_3320" x1="3.00011" y1="9.20511" x2="7.02721" y2="9.20511" gradientUnits="userSpaceOnUse">
<stop stop-color="#C2FB20"/>
<stop offset="0.23" stop-color="#C2FB20" stop-opacity="0.99"/>
<stop offset="0.36" stop-color="#C2FB20" stop-opacity="0.96"/>
<stop offset="0.47" stop-color="#C2FB20" stop-opacity="0.9"/>
<stop offset="0.57" stop-color="#C2FB20" stop-opacity="0.82"/>
<stop offset="0.67" stop-color="#C2FB20" stop-opacity="0.72"/>
<stop offset="0.75" stop-color="#C2FB20" stop-opacity="0.59"/>
<stop offset="0.83" stop-color="#C2FB20" stop-opacity="0.44"/>
<stop offset="0.91" stop-color="#C2FB20" stop-opacity="0.26"/>
<stop offset="0.98" stop-color="#C2FB20" stop-opacity="0.07"/>
<stop offset="1" stop-color="#C2FB20" stop-opacity="0"/>
</linearGradient>
<linearGradient id="paint1_linear_233_3320" x1="8.47266" y1="7.54876" x2="12.5002" y2="7.54876" gradientUnits="userSpaceOnUse">
<stop stop-color="#C2FB20" stop-opacity="0"/>
<stop offset="0.02" stop-color="#C2FB20" stop-opacity="0.07"/>
<stop offset="0.09" stop-color="#C2FB20" stop-opacity="0.26"/>
<stop offset="0.17" stop-color="#C2FB20" stop-opacity="0.44"/>
<stop offset="0.25" stop-color="#C2FB20" stop-opacity="0.59"/>
<stop offset="0.33" stop-color="#C2FB20" stop-opacity="0.72"/>
<stop offset="0.43" stop-color="#C2FB20" stop-opacity="0.82"/>
<stop offset="0.53" stop-color="#C2FB20" stop-opacity="0.9"/>
<stop offset="0.64" stop-color="#C2FB20" stop-opacity="0.96"/>
<stop offset="0.77" stop-color="#C2FB20" stop-opacity="0.99"/>
<stop offset="1" stop-color="#C2FB20"/>
</linearGradient>
</defs>
</svg>
