<svg width="100%" height="100%" viewBox="0 0 16 16" fill="none" xmlns="http://www.w3.org/2000/svg">
<circle cx="8" cy="8" r="8" fill="black"/>
<g opacity="0.8">
<path d="M7.17656 10.628C5.65094 11.2504 4.38632 11.3603 4.07245 10.8166C3.65993 10.1019 5.04818 8.52714 7.17656 7.29291V7.12183C7.15991 7.1314 7.14284 7.14097 7.12619 7.15055C4.3551 8.75026 2.47773 10.6863 2.93271 11.4747C3.29861 12.1083 5.06025 11.8073 7.17656 10.8341V10.628Z" fill="url(#paint0_linear_233_3320)"/>
<path d="M12.968 5.68106C12.6021 5.0475 10.8404 5.34847 8.72412 6.3217V6.52775C10.2497 5.90543 11.5144 5.79554 11.8282 6.33918C12.2407 7.05391 10.8525 8.62865 8.72412 9.86288V10.034C8.74077 10.0244 8.75784 10.0148 8.77449 10.0052C11.5456 8.40553 13.4229 6.46947 12.968 5.68106Z" fill="url(#paint1_linear_233_3320)"/>
</g>
<path d="M7.17656 9.17199C5.65094 9.79431 4.38632 9.90421 4.07245 9.36056C3.65993 8.64583 5.04818 7.07109 7.17656 5.83686V5.66577C7.15991 5.67535 7.14284 5.68492 7.12619 5.69449C4.3551 7.29421 2.47773 9.23027 2.93271 10.0187C3.29861 10.6522 5.06025 10.3513 7.17656 9.37804V9.17199Z" fill="#C2FB20"/>
<path d="M12.968 4.22501C12.6021 3.59145 10.8404 3.89241 8.72412 4.86564V5.0717C10.2497 4.44938 11.5144 4.33948 11.8282 4.88313C12.2407 5.59786 10.8525 7.1726 8.72412 8.40683V8.57792C8.74077 8.56834 8.75784 8.55877 8.77449 8.54919C11.5456 6.94948 13.4229 5.01342 12.968 4.22501Z" fill="#C2FB20"/>
<defs>
<linearGradient id="paint0_linear_233_3320" x1="2.86486" y1="9.465" x2="7.17656" y2="9.465" gradientUnits="userSpaceOnUse">
<stop stop-color="#C2FB20"/>
<stop offset="0.23" stop-color="#C2FB20" stop-opacity="0.99"/>
<stop offset="0.36" stop-color="#C2FB20" stop-opacity="0.96"/>
<stop offset="0.47" stop-color="#C2FB20" stop-opacity="0.9"/>
<stop offset="0.57" stop-color="#C2FB20" stop-opacity="0.82"/>
<stop offset="0.67" stop-color="#C2FB20" stop-opacity="0.72"/>
<stop offset="0.75" stop-color="#C2FB20" stop-opacity="0.59"/>
<stop offset="0.83" stop-color="#C2FB20" stop-opacity="0.44"/>
<stop offset="0.91" stop-color="#C2FB20" stop-opacity="0.26"/>
<stop offset="0.98" stop-color="#C2FB20" stop-opacity="0.07"/>
<stop offset="1" stop-color="#C2FB20" stop-opacity="0"/>
</linearGradient>
<linearGradient id="paint1_linear_233_3320" x1="8.72412" y1="7.69122" x2="13.0362" y2="7.69122" gradientUnits="userSpaceOnUse">
<stop stop-color="#C2FB20" stop-opacity="0"/>
<stop offset="0.02" stop-color="#C2FB20" stop-opacity="0.07"/>
<stop offset="0.09" stop-color="#C2FB20" stop-opacity="0.26"/>
<stop offset="0.17" stop-color="#C2FB20" stop-opacity="0.44"/>
<stop offset="0.25" stop-color="#C2FB20" stop-opacity="0.59"/>
<stop offset="0.33" stop-color="#C2FB20" stop-opacity="0.72"/>
<stop offset="0.43" stop-color="#C2FB20" stop-opacity="0.82"/>
<stop offset="0.53" stop-color="#C2FB20" stop-opacity="0.9"/>
<stop offset="0.64" stop-color="#C2FB20" stop-opacity="0.96"/>
<stop offset="0.77" stop-color="#C2FB20" stop-opacity="0.99"/>
<stop offset="1" stop-color="#C2FB20"/>
</linearGradient>
</defs>
</svg>
