<svg width="32" height="32" viewBox="0 0 32 32" fill="none" xmlns="http://www.w3.org/2000/svg">
<rect width="32" height="32" fill="#FF0420"/>
<path d="M11.3346 20.2497C10.381 20.2497 9.60024 20.0257 8.99224 19.5777C8.39064 19.1233 8.08984 18.4705 8.08984 17.6321C8.08984 17.4529 8.10904 17.2417 8.14744 16.9857C8.24984 16.4097 8.39704 15.7185 8.58904 14.9057C9.13304 12.7041 10.541 11.6033 12.8066 11.6033C13.421 11.6033 13.9778 11.7057 14.4642 11.9169C14.9506 12.1153 15.3346 12.4225 15.6162 12.8321C15.8978 13.2353 16.0386 13.7153 16.0386 14.2721C16.0386 14.4385 16.0194 14.6497 15.981 14.9057C15.8594 15.6161 15.7186 16.3137 15.5458 16.9857C15.2642 18.0801 14.7842 18.9057 14.093 19.4497C13.4082 19.9873 12.4866 20.2497 11.3346 20.2497ZM11.5074 18.5217C11.9554 18.5217 12.333 18.3873 12.6466 18.1249C12.9666 17.8625 13.197 17.4593 13.3314 16.9089C13.517 16.1537 13.6578 15.5009 13.7538 14.9377C13.7858 14.7713 13.805 14.5985 13.805 14.4193C13.805 13.6897 13.4274 13.3249 12.6658 13.3249C12.2178 13.3249 11.8338 13.4593 11.5138 13.7217C11.2002 13.9841 10.9762 14.3873 10.8418 14.9377C10.6946 15.4753 10.5538 16.1281 10.4066 16.9089C10.3746 17.0689 10.3554 17.2353 10.3554 17.4145C10.349 18.1569 10.7394 18.5217 11.5074 18.5217Z" fill="white"/>
<path d="M16.5952 20.1345C16.5056 20.1345 16.4416 20.1089 16.3904 20.0513C16.352 19.9873 16.3392 19.9169 16.352 19.8337L18.0096 12.0257C18.0224 11.9361 18.0672 11.8657 18.144 11.8081C18.2144 11.7505 18.2912 11.7249 18.3744 11.7249H21.568C22.4576 11.7249 23.168 11.9105 23.7056 12.2753C24.2496 12.6465 24.5248 13.1777 24.5248 13.8753C24.5248 14.0737 24.4992 14.2849 24.4544 14.5025C24.256 15.4241 23.8528 16.1025 23.2384 16.5441C22.6368 16.9857 21.8112 17.2033 20.7616 17.2033H19.1424L18.592 19.8337C18.5728 19.9233 18.5344 19.9937 18.4576 20.0513C18.3872 20.1089 18.3104 20.1345 18.2272 20.1345H16.5952ZM20.8448 15.5457C21.184 15.5457 21.472 15.4561 21.7216 15.2705C21.9776 15.0849 22.144 14.8225 22.2272 14.4769C22.2528 14.3425 22.2656 14.2209 22.2656 14.1185C22.2656 13.8881 22.1952 13.7089 22.0608 13.5873C21.9264 13.4593 21.6896 13.3953 21.3632 13.3953H19.9232L19.4688 15.5457H20.8448Z" fill="white"/>
</svg>
