<svg width="100%" height="100%" viewBox="0 0 16 16" fill="none" xmlns="http://www.w3.org/2000/svg">
<circle cx="8" cy="8" r="8" fill="black"/>
<g opacity="0.8">
<path d="M7.17656 10.628C5.65094 11.2504 4.38632 11.3603 4.07245 10.8166C3.65993 10.1019 5.04818 8.52714 7.17656 7.29291V7.12183C7.15991 7.1314 7.14284 7.14097 7.12619 7.15055C4.3551 8.75026 2.47773 10.6863 2.93271 11.4747C3.29861 12.1083 5.06025 11.8073 7.17656 10.8341V10.628Z" fill="#646464"/>
<path d="M12.967 5.68106C12.6011 5.0475 10.8394 5.34847 8.72314 6.3217V6.52775C10.2488 5.90543 11.5134 5.79554 11.8273 6.33918C12.2398 7.05391 10.8515 8.62865 8.72314 9.86288V10.034C8.7398 10.0244 8.75686 10.0148 8.77351 10.0052C11.5446 8.40553 13.422 6.46947 12.967 5.68106Z" fill="#646464"/>
</g>
<path d="M7.17656 9.17199C5.65094 9.79431 4.38632 9.90421 4.07245 9.36056C3.65993 8.64583 5.04818 7.07109 7.17656 5.83686V5.66577C7.15991 5.67535 7.14284 5.68492 7.12619 5.69449C4.3551 7.29421 2.47773 9.23027 2.93271 10.0187C3.29861 10.6522 5.06025 10.3513 7.17656 9.37804V9.17199Z" fill="#A0A0A2"/>
<path d="M12.967 4.22501C12.6011 3.59145 10.8394 3.89241 8.72314 4.86564V5.0717C10.2488 4.44938 11.5134 4.33948 11.8273 4.88313C12.2398 5.59786 10.8515 7.1726 8.72314 8.40683V8.57792C8.7398 8.56834 8.75686 8.55877 8.77351 8.54919C11.5446 6.94948 13.422 5.01342 12.967 4.22501Z" fill="#A0A0A2"/>
</svg>
